<?xml version="1.0" encoding="UTF-8"?>
<svg id="Layer_2" data-name="Layer 2" xmlns="http://www.w3.org/2000/svg" viewBox="0 0 1494.77 602.81">
  <defs>
    <style>
      .cls-1 {
        fill: #7f7f81;
      }

      .cls-1, .cls-2, .cls-3 {
        stroke-width: 0px;
      }

      .cls-2 {
        fill: #b80417;
      }

      .cls-3 {
        fill: #0a0907;
      }
    </style>
  </defs>
  <g id="Layer_1-2" data-name="Layer 1">
    <g>
      <path class="cls-3" d="M91.64,346.16c-6.23,1.47-6.29,1.48-4.68,8,4.42,17.85,12,34.14,24.28,48.01,1.12,1.26,1.97,3.88,4.72,2.08,2.19-1.43,4.44-2.2,4.11-5.87-2.13-23.89-5.4-47.62-9.55-71.23-.55-3.13.09-3.62,3-3.58,19.33.26,38.66.38,57.99.52,2.4.02,4.31.09,5.28,3.09,11.32,35.07,32.8,63.32,60,87.41,38.58,34.17,83.33,58.03,131.1,76.57,45.63,17.71,92.93,28.81,141.3,35.82,47.29,6.85,94.81,9.29,142.52,7.79,84.29-2.67,166.38-16.52,244.73-48.95,36.08-14.93,70.1-33.62,101.73-56.59,1.25-.91,2.26-2.5,4.75-2.16-4.77,7.63-10.17,14.43-15.81,21.02-29.23,34.16-65.25,59.56-104.58,80.62-54.96,29.44-113.58,48.31-174.62,60.12-33.38,6.46-67.03,10.84-100.96,13.1-.79.05-1.69-.15-2.05.9h-97.99c-7.97-2.36-16.27-2.08-24.42-2.92-96.11-9.92-188.16-33.06-271.91-83.25-39.87-23.9-74.79-53.3-101.1-92.09-14.3-21.09-24.81-43.91-30.92-68.72-1.03-4.19-1.16-7.93.68-11.96,1.72-3.75,2.71-7.83,4.02-11.77,2.28-.51,2.79,1.43,3.52,2.76,1.99,3.6,3.96,7.24,4.87,11.31Z"/>
      <path class="cls-2" d="M732.27,35.86c-36.4-9.1-73.32-14.92-110.71-17.96-37.77-3.07-75.55-3.29-113.34-.85-96.52,6.23-189.64,26.04-276.6,69.97-49.72,25.12-93.92,57.43-129.36,100.9-3.57,4.38-6.96,8.92-10.32,13.48-3.24,4.41-6.32,8.93-9.96,14.09-4.6-9.93-8.99-19.38-13.37-28.84-.56-1.21-1.11-2.42-1.64-3.63-3.72-8.51-3.69-8.39-12.67-6.36-2.23.5-2.68,1.21-2.14,3.25,5.96,22.87,5.8,46.51,8.61,69.77.25,2.1-.19,3.05-2.53,3.01-17.66-.24-35.31-.4-52.97-.56-3.94-.04-2.1-2.35-1.58-4.01,7.57-24.35,19.12-46.71,33.86-67.45,24.48-34.43,55.67-61.49,91.14-84.16C194.38,54.5,266.46,29.53,342.55,14.88c32.39-6.24,65.02-10.61,97.82-13.87.93-.09,2.06.24,2.54-1.01h99.99c4.99,2,10.33,1.4,15.48,1.76,39.69,2.76,79.09,7.44,117.93,16.27,18.96,4.31,37.6,9.7,55.88,16.33.02.5.04,1,.07,1.5Z"/>
      <path class="cls-3" d="M1494.77,205.93c-2.06,3.74-1.6,7.91-1.89,11.91-2.92,39.22-3.13,78.55-4.13,117.84-.18,7.02-.68,14-2.31,20.81-5.78,24.12-16.92,35.14-45.13,39.33-18.11,2.69-35.79-1.61-53.53-4.38-3.58-.56-8.42-.14-10.33-2.27-1.94-2.17-1.17-6.93-1.24-10.57-.14-7.13-.04-14.26-.04-21.59,10.19,3.42,20.92,6.83,32.14,8.3,9.81,1.29,19.57,1.27,29.35-.38,2.39-.4,3.85-1.75,5.27-3.41,9.06-10.58,12.72-23.21,13.67-36.74.5-7.11.66-14.3-1.04-22.2-5.96,11.12-14.55,18.33-25.8,22.23-24.36,8.43-50.44-2.54-59.6-26.8-12.63-33.47-9.39-66.29,9.97-96.47,13.81-21.53,35.75-28.77,60.25-29.33,17.58-.4,34.77,3.01,51.93,6.4.81.16,1.64.24,2.46.36v26.99ZM1459.78,229.19c0-7.32-.17-14.64.09-21.95.1-2.85-.9-3.8-3.49-4.03-7.31-.67-14.64-1.12-21.91.02-8.48,1.33-16.66,3.9-22.72,10.34-16.08,17.09-20.68,47.7-11.12,69.16,6.98,15.67,32.25,22.72,44.52,5.75,4.03-5.57,7.48-11.34,9.65-17.86,4.48-13.47,4.56-27.46,4.98-41.42Z"/>
      <path class="cls-3" d="M1008.18,303.93c-1.21,6.07-2.42,11.93-3.53,17.81-.42,2.25-1.29,3.27-3.9,3.26-7.66-.02-15.33.22-22.98.64-3.01.16-3.55-.8-3.44-3.65,2.58-64.74,5.09-129.49,7.5-194.23.11-3.07.89-4.07,4.01-3.71,8.45.97,16.97,1.09,25.46.79,3.24-.12,3.84.9,3.63,3.91-1.01,14.45-2.32,28.88-2.07,43.4.08,4.56.91,5.44,5.58,4.04,16.23-4.89,32.65-6.26,49.04-.38,10.23,3.67,18.25,9.81,23.45,19.67,15.98,30.28,15.45,61.25,4.39,92.74-2.09,5.96-4.86,11.64-7.98,17.14-11.31,19.9-36.64,28.72-57.9,20.1-8.88-3.6-15.38-9.69-19.16-18.61-.41-.97-.17-2.42-2.1-2.94ZM1069.21,247.86c0-7.18-.78-14.25-2.37-21.27-2.21-9.78-7.81-16.71-16.95-20.76-9.79-4.34-19.98-4.65-30.31-2.6-8.63,1.71-8.78,1.78-9.23,10.59-.82,16.1-3.32,32.15-1.52,48.33,1.41,12.64,5.55,23.87,16.1,31.98,4.19,3.22,8.64,4.52,13.9,4.07,10.64-.9,17.84-6.7,22.78-15.65,5.95-10.77,7.53-22.58,7.59-34.68Z"/>
      <path class="cls-3" d="M145.84,222.82c1.12-3.12,1.73-6.57,3.47-9.3,3.38-5.3-.66-7.82-3.36-10.92-1.62-1.86-2.68.07-3.66.91-6.23,5.3-11.65,11.42-17.3,17.31-5.55,5.77-11.24,11.38-18.15,15.55-3.82,2.31-7.79,4.28-12.93,5.25,6.28-12.25,13.55-23.23,21.53-33.74,30.02-39.57,68.46-69.09,111.59-92.88,54.74-30.19,113.53-49.1,174.43-61.97,19.88-4.2,40-6.87,60.23-8.73,2.48-.23,4.97-.27,7.58.34-9.39,2.12-18.8,4.12-28.15,6.38-53.24,12.85-104.42,30.96-151.34,59.76-35.07,21.54-66.46,47.37-90.29,81.29-19.47,27.72-31.11,58.24-29.5,92.82.29,6.31,1.49,12.5,2.79,19.24-7.73-.83-15.35.19-22.16-4.64-3.75-2.66-8.26-4.24-12.36-6.42-2.93-1.56-5.89-3.1-8.6-5-7.61-5.32-7.88-6.47-4.89-15.15,4.45-12.89,10.5-25.11,15.67-37.69.78-1.9,2.31-3.65,1.82-5.96,0,0-.18-.16-.18-.16,1.13.37.94-.72,1.31-1.19,1.19-1.53,2-3.23,2.44-5.11Z"/>
      <path class="cls-3" d="M669.48,245.31c-.17,18.41-4.02,34.5-11.24,50.01-12.72,27.31-41.48,35.7-63.25,33.1-26.68-3.19-44.08-17.8-52.28-43.34-8.9-27.72-8.17-54.97,6.53-80.51,24.5-42.55,79.44-41.34,105.24-9.65,9.52,11.69,12.5,25.84,14.34,40.3.48,3.79.51,7.64.66,10.1ZM571.33,251.68c.27,8.16,1.02,15.75,2.51,23.29,2.71,13.7,12.25,22.62,25.74,23.84,14.58,1.32,25.13-5.17,30.01-18.93,7.51-21.19,9.49-42.41-.44-63.55-2.63-5.61-6.8-9.48-12.57-11.37-16.87-5.53-28.82-1.37-38.52,15.36-5.67,9.78-6.62,20.78-6.73,31.36Z"/>
      <path class="cls-3" d="M1208.52,323.49c2.47-3.95,4.81-7.53,6.96-11.21.86-1.47,1.91-1.57,3.33-1.3,1.58.31,3.05,1.46,4.99.61-2.21-5.2-4.63-10.19-8.54-14.27-1.06.44-1.29,1.22-1.51,2.04-5,18.1-19.18,24.94-35.67,28.4-11.73,2.47-23.26,1-33.91-4.8-12.4-6.75-19.01-17.26-19.48-31.47-.84-25.35,1.19-50.61,2.58-75.89.65-11.82.92-23.64.76-35.47-.04-3.23.72-4.33,4.09-4.2,8.66.33,17.33.39,25.99.32,3.29-.03,4.18.95,3.9,4.33-1.88,23.07-4.15,46.12-4.63,69.28-.16,7.49-.35,15,0,22.48.54,11.76,7.78,19.89,19.23,22.29,11.74,2.46,23.23-2.66,28.34-12.8,8.05-15.99,10.35-33.26,10.73-50.83.36-16.65.24-33.32.15-49.98-.02-3.77.93-5.22,5.04-5.03,8.65.4,17.33.34,25.99.2,3.24-.05,3.74.95,3.51,4.05-3.47,46.52-5.96,93.1-5.71,139.77.02,4.28-1.23,5.23-5.28,5.11-10.1-.31-20.2-.23-30.86-1.64Z"/>
      <path class="cls-3" d="M398.2,158.8c-7.66-2.6-15.03-4.54-22.65-5.36-8.2-.88-16.31-.75-24.11,2.3-13.23,5.18-17.58,19.27-9.64,30.98,8.18,12.06,18.51,22.26,28.4,32.84,8.42,9.02,16.52,18.28,22.69,29.06,11.7,20.44,9.19,45.31-5.99,63.27-8.52,10.07-19.63,14.34-32.22,15.98-17.35,2.26-34.15-.73-50.82-5.15-2.32-.61-3.62-2.16-4.65-4.14-2.38-4.57-2.84-9.54-2.92-14.54-.1-6.28-.02-12.57-.02-19.86,7.71,4.38,14.37,7.98,21.68,10.17,11.96,3.59,23.84,4.11,35.72-.45,3.45-1.33,5.31-3.63,7.2-6.85,5.71-9.71,3.41-17.98-2.5-26.58-6.55-9.52-14.07-18.14-21.96-26.5-8.58-9.08-17.19-18.13-24.09-28.62-12.04-18.31-13.88-37.52-4.35-57.29,9.13-18.94,25.7-26.02,45.67-26.66,12.69-.41,25.21,1.94,37.81,3.1,1.43.13,2.35.45,2.68,2.21,1.95,10.46,3.57,20.95,4.08,32.1Z"/>
      <path class="cls-1" d="M145.84,222.82c-.45,1.88-1.25,3.59-2.44,5.11-.62.19-1.48.12-1.31,1.19,0,0,.18.16.18.16-2.78-.67-3.66,1.83-4.95,3.26-6.48,7.19-10.11,15.94-13.16,24.96-2.87,8.49-5.1,17.22-8.77,25.42-1.32,2.94.39,3.8,2.36,4.92,10.98,6.25,21.85,12.72,33.44,17.79,3.4,1.49,3.62,3.26,3.14,6.52-.57,3.86-3.13,2.71-5.16,2.76-14.14.29-28.28.69-42.42.59-4.58-.03-5.65,1.73-5.64,5.8.04,14.71,2.99,29.05,5.3,43.48.56,3.52,1.01,7.05,1.69,11.8-4.7-4.24-6.92-8.61-9.06-13.06-2.73-5.67-3.86-12.02-7.39-17.34-.91-4.08-2.88-7.71-4.87-11.31-.73-1.32-1.24-3.27-3.52-2.76-1.98-6.41-8.13-8.84-13.4-5.28-7.4,5.01-13.11,11.78-19.08,18.27-5.17,5.62-10.53,10.99-18.07,14.97.7-6.76,3.02-12.26,5.13-17.81,4.71-12.42,10.88-24.3,13.43-37.51.76-3.97.73-7.94.93-11.92.13-2.57-.93-4.39-2.68-6.14-5.07-5.08-11.45-7.93-17.85-10.76-5.78-2.56-11.65-4.97-16.65-8.98-2.85-2.29-5.35-4.85-6.9-8.66,9.66,0,18.91-.08,28.16.02,8.83.1,17.66.24,26.47.65,3.54.16,4.56-.92,4.35-4.46-1.07-18.29-3.37-36.44-5.57-54.61-.4-3.29-.82-6.58-1.34-10.82,6.02,7.3,10.39,14.68,14.28,22.27,6.83,13.32,13.36,26.8,19.81,40.31,1.68,3.53,2.88,4.11,5.79,1.08,8.77-9.13,17.86-17.95,26.64-27.06,2.52-2.61,4.84-3.95,8.69-3.14,3.35.7,6.95.24,10.44.29Z"/>
      <path class="cls-3" d="M519.66,210.21c-12.15-5.69-23.86-8.85-36.51-6.38-10.52,2.06-18.34,7.64-22.62,17.59-7.16,16.65-10.45,33.98-4.57,51.51,7.91,23.56,20.24,27.01,40.91,24.55,6.29-.75,12.11-3.15,18.26-6.4.29,10.71-.2,20.73-1.87,30.72-.25,1.47-.75,2.48-2.28,2.82-17,3.85-34.03,6.46-51.29,1.41-10.98-3.22-19.6-9.54-25.81-19.2-12.74-19.83-15.72-41.73-13.54-64.63,1.13-11.79,4.23-23.14,8.24-34.31,7.5-20.87,22.98-31.45,44.09-34.84,14.4-2.31,28.5-.47,42.4,3.67,2.75.82,4,1.83,4.24,4.95.73,9.29.88,18.54.33,28.54Z"/>
      <path class="cls-3" d="M823.72,140.88c0,11.04.21,21.52-.11,31.98-.11,3.67.93,4.42,4.35,4.28,7.15-.29,14.32,0,21.48-.21,3.08-.1,4.55.47,4.26,4-.55,6.63-.79,13.3-.99,19.95-.11,3.8-1.37,5.44-5.59,5.15-6.97-.48-13.98-.22-20.98-.34-1.99-.03-3.37-.09-3.4,2.73-.3,22.63-3.09,45.2-1.88,67.88.28,5.14,1.22,10.25,1.45,15.39.19,4.18,2.38,5.12,6.04,5.23,6.5.19,13,.45,19.47-.22,2.66-.28,3.59.21,3.18,3.03-1.1,7.57-2.04,15.16-2.96,22.76-.18,1.45-.49,2.38-2.12,2.82-12.83,3.48-25.75,5.55-38.85,1.68-12.25-3.62-18.42-12.11-19.28-24.82-2.03-29.87,1.61-59.55,2.62-89.31.27-8.08.86-6.63-6.23-6.92-10.64-.44-10.65-.38-10.12-10.79.26-4.99.73-9.98.73-14.96,0-2.82,1.14-3.47,3.57-3.11.65.1,1.33.11,2,.06,3.93-.28,9.03,2.27,11.44-.4,1.99-2.21.81-7.26,1.08-11.05.21-2.82.94-5.68.67-8.44-.65-6.55,3.1-9.36,8.54-10.83,7.02-1.9,14.09-3.61,21.65-5.52Z"/>
      <path class="cls-3" d="M731.77,249.27c0,11.01-.05,22.99.02,34.98.05,8.12,4.61,12.91,12.74,13.62,5.02.44,9.98-.23,14.91-1.05,2.82-.46,3.86-.03,3.18,3.22-1.39,6.67-2.39,13.41-3.48,20.14-.27,1.67-.34,3.06-2.37,3.87-13.05,5.19-26.32,7.11-39.95,2.75-10.85-3.47-17.91-13.94-18.33-24.17-1.04-25.36.9-50.59,1.87-75.86.23-5.99.34-11.98.64-17.97.11-2.12-.48-2.98-2.74-2.89-3.49.14-7-.11-10.49,0-2.07.07-2.99-.47-2.95-2.74.12-7.49-.1-14.98.5-22.46.22-2.81.91-4.28,4.11-3.81,2.28.34,4.65.09,6.99.12,6.7.06,6.75.07,7.26-6.81.47-6.31,1-12.62,1.15-18.94.06-2.63,1.3-3.38,3.43-3.91,7.9-1.96,15.8-3.91,23.65-6.04,2.6-.71,3.08.11,3.04,2.54-.17,9.99-.07,19.98-.28,29.97-.06,2.84.74,3.68,3.6,3.53,6.98-.35,13.99-.23,20.97-.56,2.78-.13,3.6.68,3.81,3.49.53,7.15.81,14.29.91,21.45.03,2.57-.69,3.41-3.29,3.44-7.49.07-14.98.59-22.46.53-3.25-.03-4.6.48-4.69,4.16-.34,12.81-1.09,25.61-1.73,39.4Z"/>
      <path class="cls-3" d="M862.42,290.82c12.55,5.54,24.59,10.29,37.99,9.15,8.46-.72,14-5.37,16.06-13.29.71-2.71.5-5.21-.82-7.7-3.07-5.79-7.01-10.91-11.7-15.45-6.22-6.02-12.78-11.71-18.74-17.97-18.2-19.15-20.55-41.97-3.21-63.8,1.5-1.89,3.23-3.16,5.46-4.08,17.14-7.12,34.78-6.45,52.53-3.33,10.82,1.9,10.84,2.05,10.83,13.29,0,5.16-.29,10.32-.31,15.48,0,3.13-1.14,3.47-3.91,2.42-8.28-3.16-16.77-5.35-25.78-4.73-3.74.26-7.21,1.25-10.32,3.3-6.83,4.49-8.22,9.67-4.61,16.91,3.86,7.73,9.8,13.78,15.95,19.67,6.72,6.45,13.98,12.41,19.32,20.15,12.25,17.79,13.04,42.94-5.61,58.03-8.52,6.9-18.78,9.12-29.31,9.84-13.44.92-26.4-2.5-39.39-5.4-2.18-.49-2.52-1.81-2.71-3.49-1.1-9.41-1.74-18.85-1.7-28.98Z"/>
      <path class="cls-2" d="M151.07,505.77c-.79,1.01-1.51.16-2.09-.2-38.51-23.97-74.45-51.06-103.12-86.68-17.85-22.17-32.88-45.99-40.17-73.95-6.38-24.5-6.53-49.38-4.64-74.41.22-2.91,1.27-2.73,3.44-1.79,14.86,6.41,29.08,13.92,41.94,23.86,2.24,1.73,2.54,3.21,1.75,5.87-3.81,12.79-9.64,24.75-14.84,36.97-4.82,11.33-9.21,22.79-10.74,35.16-.37,2.96.3,3.56,3.04,2.89,4.36-1.06,7.91-3.36,11.01-6.52,3.99-4.06,7.03-8.86,10.51-13.32,3.94-5.07,4.26-5.03,7.39.79,1.9,3.54,3.32,7.3,4.19,11.17,9.29,41.29,30.75,75.81,59.36,106.26,7.74,8.24,16.3,15.72,24.35,23.68,3.16,3.12,6.53,6.15,8.48,10.3l.12-.08Z"/>
      <path class="cls-3" d="M1308.91,192.73c3.85-4.56,7.15-8.43,11.11-11.65,7.89-6.41,16.78-9.95,27.05-9.95,3.12,0,4.33,1.11,4.47,4.34.37,9.15.96,18.29,1.73,27.42.25,2.92-.34,3.82-3.38,3.51-5.99-.59-11.97-.17-17.84,1.33-7.22,1.84-12.28,6.08-15.5,12.89-7.51,15.9-9.04,32.9-9.54,50.09-.47,16.31.47,32.63-1.1,48.93-.42,4.4-1.58,5.96-6.25,5.6-6.79-.52-13.66-.4-20.47-.04-3.68.2-4.74-.61-4.75-4.46-.02-23.99.74-47.96,1.7-71.93.92-22.97,1.95-45.93,1.63-68.92-.05-3.39.56-4.41,4.27-4.21,7.8.42,15.65.3,23.47-.03,3.01-.13,3.63.67,3.48,3.45-.23,4.23-.06,8.48-.06,13.63Z"/>
      <path class="cls-1" d="M459.82,379.98c-10.81-3.43-21.49-5.72-32.6-5.14-4.86.25-9.53,1.27-14.18,2.64-15.92,4.69-21.31,17.26-23.99,31.88-1.75,9.54-1.31,18.86,2.56,27.91,4.16,9.72,11.75,14.59,21.99,15.59,7.82.77,15.65-.11,23.48-.11,2.36,0,3.32-.99,3.44-3.19.43-7.81.83-15.63,1.34-23.43.14-2.09-.86-2.92-2.67-3.54-4.41-1.5-8.7-3.35-13.15-4.7-3.35-1.02-3.5-2.72-2.33-5.57,2.39-5.85,7.42-6.83,12.71-6.9,8.15-.11,16.2,2.02,24.4,1.41,2.42-.18,2.14,1.54,2.06,3-.28,4.99-.76,9.96-.93,14.95-.43,12.48-.75,24.97-1.08,37.45-.05,1.87.15,3.58-2.44,4.05-19.42,3.52-38.83,6.09-58.4,1-20.62-5.36-30.31-20.26-33.25-39.91-3.42-22.92,2.81-43.09,21.28-58.05,13.07-10.59,28.96-11.84,45.03-11.02,8.15.42,16.14,2.08,24,4.4,2.75.81,3.83,2.08,3.54,4.93-.41,3.95-.54,7.93-.81,12.32Z"/>
      <path class="cls-1" d="M675.76,466.58c-6.8.92-13.42,1.15-20.06,1.4-2.95.11-4.08-.95-4.77-3.63-2.61-10.13-5.51-20.19-8.07-30.34-.77-3.04-1.9-4.24-5.3-4.17-9.98.21-19.98.09-29.96-.27-3.28-.12-4.69,1.02-5.84,3.9-4.01,10.03-8.39,19.91-12.35,29.96-1,2.53-2.33,3.75-4.91,4.07-5.65.71-11.29.54-16.95.29-2.47-.11-3.28-.97-2.08-3.44,16.45-33.95,30.02-69.27,48.45-102.29,1.31-2.35,2.84-3.31,5.55-3.09,5.31.41,10.64.74,15.95.72,2.91-.01,3.54,1.85,4.46,3.82,8.03,17.06,13.29,35.1,18.67,53.09,4.85,16.25,9.8,32.45,16.66,48,.25.58.34,1.22.55,2ZM626.34,376.25c-6.24,11.9-11.23,22.83-14.84,34.39-.9,2.88.41,3.04,2.58,3.03,6.14-.03,12.28-.06,18.41.09,2.85.07,3.92-.61,3.05-3.69-3.05-10.83-5.92-21.71-9.2-33.82Z"/>
      <path class="cls-1" d="M719.57,470.06c-8.04.19-15.87-1.41-23.73-2.79-2.49-.44-3.82-1.37-3.95-4.09-.15-3.14-.42-6.34-1.17-9.38-1.02-4.1.58-4.5,4-3.71,11.16,2.58,22.4,2.5,33.71.94,2.79-.38,3.55-1.46,3.66-4.08.32-7.52-2.82-13.62-7.65-18.91-3.58-3.93-7.6-7.44-11.45-11.13-3.24-3.11-6.68-6.03-9.73-9.32-7.73-8.33-11.48-17.79-7.64-29.23,3.81-11.3,12.37-16.91,23.38-19.41,9.43-2.14,18.82-1.43,28.14.98,3.02.78,4.47,2.36,4.64,5.48.15,2.81.56,5.63,1.1,8.4.77,3.95-.94,4.45-4.35,3.8-7.15-1.35-14.26-3.39-21.69-1.89-9.55,1.93-12.98,10.13-7.5,18.12,4.37,6.37,10.12,11.46,15.65,16.75,5.65,5.4,11.37,10.71,15.94,17.16,3.29,4.64,4.27,9.37,3.33,15.01-3.17,18.9-11.69,26.64-30.71,27.29-1.33.04-2.66,0-3.99,0Z"/>
      <path class="cls-1" d="M836.92,381.82c-3.2.11-5.36-2.3-8.07-3.39-8.03-3.24-15.98-4.42-24.11-.36-3.7,1.84-4.92,4.55-3.86,8.55,1.5,5.64,4.45,10.4,8.6,14.38,5.77,5.52,11.69,10.89,17.59,16.27,6.05,5.53,8.94,12.74,10.72,20.44.96,4.15.07,8.2-1.61,12.16-4.71,11.04-11.53,18.86-24.72,19.63-8.65.5-17.23,1.94-25.7-.83-7.43-2.43-11.52-8.68-10.64-15.51.37-2.9,1.49-4.03,4.56-3.32,5.83,1.34,11.71,2.42,17.58,3.57,3.51.69,6.99.31,10.37-.69,6.69-1.98,9.79-8.48,7.26-14.97-3.13-8.04-9.31-13.66-15.41-19.35-3.89-3.63-7.82-7.23-11.58-11.01-9.45-9.51-11.43-20.86-7.03-33.15,4.1-11.48,14.28-14.69,25-16.11,7.77-1.03,15.59-.37,23.35,1.12,3.75.72,5.17,2.81,5.79,6.33.95,5.41,0,11.01,1.8,16.31l.09-.07Z"/>
      <path class="cls-1" d="M523.21,467.89c-9.49,0-18.99-.33-28.46.13-4.97.24-5.54-1.53-5.45-5.9.66-31.77,4.48-63.41,3.63-95.23-.21-7.68-.12-7.68,7.5-7.75,1.33-.01,2.66-.02,3.99-.04q10.4-.08,10.46,10.57c.14,18.65-1.7,37.21-2.55,55.82-.32,6.98-.07,13.98-.44,20.96-.22,4.02.87,5.56,5.19,5.36,11.3-.54,22.62-.5,33.93-.99,3.55-.15,5.43.5,4.93,4.47-.54,4.25,2.58,9.82-.26,12.33-2.27,2.02-7.87.27-11.99.25-6.82-.03-13.65,0-20.47,0,0,0,0,.01,0,.02Z"/>
      <path class="cls-1" d="M732.27,35.86c-.02-.5-.05-1-.07-1.5,2.62.91,5.23,1.81,7.84,2.71-2.82.55-5.28-.41-7.77-1.22Z"/>
      <path class="cls-1" d="M836.83,381.89c.12.08.26.14.36.24.04.04,0,.17,0,.26-.09-.19-.17-.38-.26-.57,0,0-.09.07-.09.07Z"/>
      <path class="cls-2" d="M150.94,505.86c.22.17.43.34.65.5-.22.05-.43.09-.65.14.04-.24.08-.48.12-.72,0,0-.12.08-.12.08Z"/>
    </g>
  </g>
</svg>